<?xml version="1.0" encoding="utf-8"?>
<svg xmlns="http://www.w3.org/2000/svg" viewBox="0 0 500 500" xmlns:bx="https://boxy-svg.com" width="500px" height="500px"><defs><bx:export><bx:file format="svg" path="Sans titre.svg"/></bx:export></defs><g id="SVGRepo_bgCarrier" stroke-width="0" transform="matrix(0.837211, 0, 0, 0.837211, 44.471207, 41.789547)" style=""/><g id="SVGRepo_tracerCarrier" stroke-linecap="round" stroke-linejoin="round" stroke="#CCCCCC" stroke-width="6.144" transform="matrix(0.837211, 0, 0, 0.837211, 44.471207, 41.789547)" style=""/><g transform="matrix(0.837211, 0, 0, 0.837211, 13.305795, -55.096077)"><g><g id="group-1" stroke-width="0" transform="matrix(4.378603, 0, 0, 4.378603, 282.740845, 342.059723)" style=""/><g id="group-2" stroke-linecap="round" stroke-linejoin="round" transform="matrix(4.378603, 0, 0, 4.378603, 282.740845, 342.059723)" style=""/><g id="SVGRepo_iconCarrier" transform="matrix(4.378603, 0, 0, 4.378603, 142.602188, 224.304245)" style=""><path fill="#000000" d="M60,0H4C1.789,0,0,1.789,0,4v56c0,2.211,1.789,4,4,4h56c2.211,0,4-1.789,4-4V4C64,1.789,62.211,0,60,0z M15,62H4c-1.104,0-2-0.896-2-2V4c0-1.104,0.641-2,2-2h7v39c0,0.553,0.447,1,1,1h3V62z M31,62H17V42h3c0.553,0,1-0.447,1-1V2h6v39 c0,0.553,0.447,1,1,1h3V62z M47,62H33V42h3c0.553,0,1-0.447,1-1V2h6v39c0,0.553,0.447,1,1,1h3V62z M62,60c0,1.104-0.896,2-2,2H49V42 h3c0.553,0,1-0.447,1-1V2h7c1.016,0,2,0.896,2,2V60z"/></g></g></g></svg>