<?xml version="1.0" encoding="utf-8"?>
<svg xmlns="http://www.w3.org/2000/svg" viewBox="-94.2183 -94.2183 688.4365 688.4365" width="688.437px" height="688.437px"><path d="M 308.413 390.111 C 301.327 397.2 292.024 400.762 282.72 400.762 C 273.416 400.762 264.113 397.2 257.027 390.111 C 242.818 375.903 242.818 352.935 257.027 338.727 L 460.715 135.039 C 411.437 96.736 349.805 73.695 282.718 73.695 C 122.421 73.695 -8.01 204.12 -8.01 364.42 C -8.01 524.72 122.423 655.144 282.72 655.144 C 443.018 655.144 573.445 524.719 573.445 364.418 C 573.445 297.335 550.405 235.663 512.101 186.422 L 308.413 390.111 Z" style="transform-origin: 282.718px 364.42px;" transform="matrix(0.591997742653, -0.591997742653, 0.591997742653, 0.591997742653, -32.717534543495, -114.419592999031)" id="object-0"/></svg>